<svg width="297" height="77" viewBox="0 0 297 77" fill="none" xmlns="http://www.w3.org/2000/svg">
<mask id="mask0_39_39" style="mask-type:alpha" maskUnits="userSpaceOnUse" x="22" y="18" width="254" height="34">
<path d="M22 34.5128C22 25.393 29.393 18 38.5128 18H259.038C268.158 18 275.551 25.393 275.551 34.5128C275.551 43.6325 268.158 51.0255 259.038 51.0255H38.5128C29.393 51.0255 22 43.6325 22 34.5128Z" fill="#2B2B2B" style="fill:#2B2B2B;fill:color(display-p3 0.1674 0.1674 0.1674);fill-opacity:1;"/>
</mask>
<g mask="url(#mask0_39_39)">
<path d="M-114 -592.577C-114 -617.58 -93.7312 -637.849 -68.7284 -637.849H66.4718V181.848H-68.7283C-93.7312 181.848 -114 161.58 -114 136.577V-592.577Z" fill="#2AE021" style="fill:#2AE021;fill:color(display-p3 0.1662 0.8775 0.1287);fill-opacity:1;"/>
<g filter="url(#filter0_d_39_39)">
<rect x="66.4717" y="-637.849" width="162.582" height="819.697" fill="#FFE924" style="fill:#FFE924;fill:color(display-p3 1.0000 0.9140 0.1403);fill-opacity:1;"/>
</g>
<path d="M229.054 -637.849H363.728C388.731 -637.849 409 -617.58 409 -592.577V134.902C409 159.905 388.731 180.174 363.728 180.174H229.054V-637.849Z" fill="#F83232" style="fill:#F83232;fill:color(display-p3 0.9720 0.1969 0.1969);fill-opacity:1;"/>
</g>
<defs>
<filter id="filter0_d_39_39" x="21.386" y="-682.934" width="252.754" height="909.868" filterUnits="userSpaceOnUse" color-interpolation-filters="sRGB">
<feFlood flood-opacity="0" result="BackgroundImageFix"/>
<feColorMatrix in="SourceAlpha" type="matrix" values="0 0 0 0 0 0 0 0 0 0 0 0 0 0 0 0 0 0 127 0" result="hardAlpha"/>
<feOffset/>
<feGaussianBlur stdDeviation="22.5428"/>
<feComposite in2="hardAlpha" operator="out"/>
<feColorMatrix type="matrix" values="0 0 0 0 0 0 0 0 0 0 0 0 0 0 0 0 0 0 0.25 0"/>
<feBlend mode="normal" in2="BackgroundImageFix" result="effect1_dropShadow_39_39"/>
<feBlend mode="normal" in="SourceGraphic" in2="effect1_dropShadow_39_39" result="shape"/>
</filter>
</defs>
</svg>
