<svg width="297" height="77" viewBox="0 0 297 77" fill="none" xmlns="http://www.w3.org/2000/svg">
<mask id="mask0_39_40" style="mask-type:alpha" maskUnits="userSpaceOnUse" x="22" y="18" width="254" height="34">
<path d="M22 18H275.551C275.551 36.2395 260.765 51.0255 242.525 51.0255H55.0255C36.786 51.0255 22 36.2395 22 18Z" fill="#2B2B2B" style="fill:#2B2B2B;fill:color(display-p3 0.1674 0.1674 0.1674);fill-opacity:1;"/>
</mask>
<g mask="url(#mask0_39_40)">
<path d="M-114 -645.577C-114 -670.58 -93.7312 -690.849 -68.7284 -690.849H66.4718V128.848H-68.7283C-93.7312 128.848 -114 108.58 -114 83.5768V-645.577Z" fill="#2AE021" style="fill:#2AE021;fill:color(display-p3 0.1662 0.8775 0.1287);fill-opacity:1;"/>
<g filter="url(#filter0_d_39_40)">
<rect x="66.4717" y="-690.849" width="162.582" height="819.697" fill="#FFE924" style="fill:#FFE924;fill:color(display-p3 1.0000 0.9140 0.1403);fill-opacity:1;"/>
</g>
<path d="M229.054 -690.849H363.728C388.731 -690.849 409 -670.58 409 -645.577V81.9022C409 106.905 388.731 127.174 363.728 127.174H229.054V-690.849Z" fill="#F83232" style="fill:#F83232;fill:color(display-p3 0.9720 0.1969 0.1969);fill-opacity:1;"/>
</g>
<defs>
<filter id="filter0_d_39_40" x="21.386" y="-735.934" width="252.754" height="909.868" filterUnits="userSpaceOnUse" color-interpolation-filters="sRGB">
<feFlood flood-opacity="0" result="BackgroundImageFix"/>
<feColorMatrix in="SourceAlpha" type="matrix" values="0 0 0 0 0 0 0 0 0 0 0 0 0 0 0 0 0 0 127 0" result="hardAlpha"/>
<feOffset/>
<feGaussianBlur stdDeviation="22.5428"/>
<feComposite in2="hardAlpha" operator="out"/>
<feColorMatrix type="matrix" values="0 0 0 0 0 0 0 0 0 0 0 0 0 0 0 0 0 0 0.25 0"/>
<feBlend mode="normal" in2="BackgroundImageFix" result="effect1_dropShadow_39_40"/>
<feBlend mode="normal" in="SourceGraphic" in2="effect1_dropShadow_39_40" result="shape"/>
</filter>
</defs>
</svg>
